<svg width="1172" height="1500" viewBox="0 0 1172 1500" fill="none" xmlns="http://www.w3.org/2000/svg">
<rect width="1172" height="1500" rx="100" fill="white" fill-opacity="0.8"/>
<g clip-path="url(#clip0_15_2)">
<path d="M137.667 179.333H254.333ZM121 196H137.667ZM254.333 196H271ZM121 212.667H137.667ZM187.667 212.667H204.333ZM254.333 212.667H271ZM121 229.333H137.667ZM187.667 229.333H221ZM254.333 229.333H271ZM121 246H137.667ZM154.333 246H237.667ZM254.333 246H271ZM121 262.667H137.667ZM187.667 262.667H221ZM254.333 262.667H271ZM121 279.333H137.667ZM187.667 279.333H204.333ZM254.333 279.333H271ZM121 296H137.667ZM254.333 296H271ZM137.667 312.667H254.333Z" fill="black"/>
<path d="M137.667 179.333H254.333M121 196H137.667M254.333 196H271M121 212.667H137.667M187.667 212.667H204.333M254.333 212.667H271M121 229.333H137.667M187.667 229.333H221M254.333 229.333H271M121 246H137.667M154.333 246H237.667M254.333 246H271M121 262.667H137.667M187.667 262.667H221M254.333 262.667H271M121 279.333H137.667M187.667 279.333H204.333M254.333 279.333H271M121 296H137.667M254.333 296H271M137.667 312.667H254.333" stroke="#303030" stroke-width="16.6667"/>
<path d="M137.667 196H254.333ZM137.667 212.667H187.667ZM204.333 212.667H254.333ZM137.667 229.333H187.667ZM221 229.333H254.333ZM137.667 246H154.333ZM237.667 246H254.333ZM137.667 262.667H187.667ZM221 262.667H254.333ZM137.667 279.333H187.667ZM204.333 279.333H254.333ZM137.667 296H254.333Z" fill="black"/>
<path d="M137.667 196H254.333M137.667 212.667H187.667M204.333 212.667H254.333M137.667 229.333H187.667M221 229.333H254.333M137.667 246H154.333M237.667 246H254.333M137.667 262.667H187.667M221 262.667H254.333M137.667 279.333H187.667M204.333 279.333H254.333M137.667 296H254.333" stroke="#858585" stroke-width="16.6667"/>
</g>
<g clip-path="url(#clip1_15_2)">
<path d="M137.667 1187.33H254.333ZM121 1204H137.667ZM254.333 1204H271ZM121 1220.67H137.667ZM171 1220.67H221ZM254.333 1220.67H271ZM121 1237.33H137.667ZM171 1237.33H187.667ZM204.333 1237.33H221ZM254.333 1237.33H271ZM121 1254H137.667ZM171 1254H204.333ZM254.333 1254H271ZM121 1270.67H137.667ZM171 1270.67H187.667ZM204.333 1270.67H221ZM254.333 1270.67H271ZM121 1287.33H137.667ZM171 1287.33H187.667ZM204.333 1287.33H221ZM254.333 1287.33H271ZM121 1304H137.667ZM254.333 1304H271ZM137.667 1320.67H254.333Z" fill="black"/>
<path d="M137.667 1187.33H254.333M121 1204H137.667M254.333 1204H271M121 1220.67H137.667M171 1220.67H221M254.333 1220.67H271M121 1237.33H137.667M171 1237.33H187.667M204.333 1237.33H221M254.333 1237.33H271M121 1254H137.667M171 1254H204.333M254.333 1254H271M121 1270.67H137.667M171 1270.67H187.667M204.333 1270.67H221M254.333 1270.67H271M121 1287.33H137.667M171 1287.33H187.667M204.333 1287.33H221M254.333 1287.33H271M121 1304H137.667M254.333 1304H271M137.667 1320.67H254.333" stroke="#303030" stroke-width="16.6667"/>
<path d="M137.667 1204H254.333ZM137.667 1220.67H171ZM221 1220.67H254.333ZM137.667 1237.33H171ZM187.667 1237.33H204.333ZM221 1237.33H254.333ZM137.667 1254H171ZM204.333 1254H254.333ZM137.667 1270.67H171ZM187.667 1270.67H204.333ZM221 1270.67H254.333ZM137.667 1287.33H171ZM187.667 1287.33H204.333ZM221 1287.33H254.333ZM137.667 1304H254.333Z" fill="black"/>
<path d="M137.667 1204H254.333M137.667 1220.67H171M221 1220.67H254.333M137.667 1237.33H171M187.667 1237.33H204.333M221 1237.33H254.333M137.667 1254H171M204.333 1254H254.333M137.667 1270.67H171M187.667 1270.67H204.333M221 1270.67H254.333M137.667 1287.33H171M187.667 1287.33H204.333M221 1287.33H254.333M137.667 1304H254.333" stroke="#858585" stroke-width="16.6667"/>
</g>
<g clip-path="url(#clip2_15_2)">
<path d="M137.667 851.333H254.333ZM121 868H137.667ZM254.333 868H271ZM121 884.667H137.667ZM171 884.667H221ZM254.333 884.667H271ZM121 901.333H137.667ZM171 901.333H187.667ZM254.333 901.333H271ZM121 918H137.667ZM171 918H204.333ZM254.333 918H271ZM121 934.667H137.667ZM171 934.667H187.667ZM254.333 934.667H271ZM121 951.333H137.667ZM171 951.333H221ZM254.333 951.333H271ZM121 968H137.667ZM254.333 968H271ZM137.667 984.667H254.333Z" fill="black"/>
<path d="M137.667 851.333H254.333M121 868H137.667M254.333 868H271M121 884.667H137.667M171 884.667H221M254.333 884.667H271M121 901.333H137.667M171 901.333H187.667M254.333 901.333H271M121 918H137.667M171 918H204.333M254.333 918H271M121 934.667H137.667M171 934.667H187.667M254.333 934.667H271M121 951.333H137.667M171 951.333H221M254.333 951.333H271M121 968H137.667M254.333 968H271M137.667 984.667H254.333" stroke="#303030" stroke-width="16.6667"/>
<path d="M137.667 868H254.333ZM137.667 884.667H171ZM221 884.667H254.333ZM137.667 901.333H171ZM187.667 901.333H254.333ZM137.667 918H171ZM204.333 918H254.333ZM137.667 934.667H171ZM187.667 934.667H254.333ZM137.667 951.333H171ZM221 951.333H254.333ZM137.667 968H254.333Z" fill="black"/>
<path d="M137.667 868H254.333M137.667 884.667H171M221 884.667H254.333M137.667 901.333H171M187.667 901.333H254.333M137.667 918H171M204.333 918H254.333M137.667 934.667H171M187.667 934.667H254.333M137.667 951.333H171M221 951.333H254.333M137.667 968H254.333" stroke="#858585" stroke-width="16.6667"/>
</g>
<g clip-path="url(#clip3_15_2)">
<path d="M137.667 347.333H254.333ZM121 364H137.667ZM254.333 364H271ZM121 380.667H137.667ZM187.667 380.667H204.333ZM254.333 380.667H271ZM121 397.333H137.667ZM187.667 397.333H204.333ZM254.333 397.333H271ZM121 414H137.667ZM154.333 414H237.667ZM254.333 414H271ZM121 430.667H137.667ZM171 430.667H221ZM254.333 430.667H271ZM121 447.333H137.667ZM187.667 447.333H204.333ZM254.333 447.333H271ZM121 464H137.667ZM254.333 464H271ZM137.667 480.667H254.333Z" fill="black"/>
<path d="M137.667 347.333H254.333M121 364H137.667M254.333 364H271M121 380.667H137.667M187.667 380.667H204.333M254.333 380.667H271M121 397.333H137.667M187.667 397.333H204.333M254.333 397.333H271M121 414H137.667M154.333 414H237.667M254.333 414H271M121 430.667H137.667M171 430.667H221M254.333 430.667H271M121 447.333H137.667M187.667 447.333H204.333M254.333 447.333H271M121 464H137.667M254.333 464H271M137.667 480.667H254.333" stroke="#303030" stroke-width="16.6667"/>
<path d="M137.667 364H254.333ZM137.667 380.667H187.667ZM204.333 380.667H254.333ZM137.667 397.333H187.667ZM204.333 397.333H254.333ZM137.667 414H154.333ZM237.667 414H254.333ZM137.667 430.667H171ZM221 430.667H254.333ZM137.667 447.333H187.667ZM204.333 447.333H254.333ZM137.667 464H254.333Z" fill="black"/>
<path d="M137.667 364H254.333M137.667 380.667H187.667M204.333 380.667H254.333M137.667 397.333H187.667M204.333 397.333H254.333M137.667 414H154.333M237.667 414H254.333M137.667 430.667H171M221 430.667H254.333M137.667 447.333H187.667M204.333 447.333H254.333M137.667 464H254.333" stroke="#858585" stroke-width="16.6667"/>
</g>
<g clip-path="url(#clip4_15_2)">
<path d="M137.667 515.333H254.333ZM121 532H137.667ZM254.333 532H271ZM121 548.667H137.667ZM187.667 548.667H204.333ZM254.333 548.667H271ZM121 565.333H137.667ZM171 565.333H204.333ZM254.333 565.333H271ZM121 582H137.667ZM154.333 582H237.667ZM254.333 582H271ZM121 598.667H137.667ZM171 598.667H204.333ZM254.333 598.667H271ZM121 615.333H137.667ZM187.667 615.333H204.333ZM254.333 615.333H271ZM121 632H137.667ZM254.333 632H271ZM137.667 648.667H254.333Z" fill="black"/>
<path d="M137.667 515.333H254.333M121 532H137.667M254.333 532H271M121 548.667H137.667M187.667 548.667H204.333M254.333 548.667H271M121 565.333H137.667M171 565.333H204.333M254.333 565.333H271M121 582H137.667M154.333 582H237.667M254.333 582H271M121 598.667H137.667M171 598.667H204.333M254.333 598.667H271M121 615.333H137.667M187.667 615.333H204.333M254.333 615.333H271M121 632H137.667M254.333 632H271M137.667 648.667H254.333" stroke="#303030" stroke-width="16.6667"/>
<path d="M137.667 532H254.333ZM137.667 548.667H187.667ZM204.333 548.667H254.333ZM137.667 565.333H171ZM204.333 565.333H254.333ZM137.667 582H154.333ZM237.667 582H254.333ZM137.667 598.667H171ZM204.333 598.667H254.333ZM137.667 615.333H187.667ZM204.333 615.333H254.333ZM137.667 632H254.333Z" fill="black"/>
<path d="M137.667 532H254.333M137.667 548.667H187.667M204.333 548.667H254.333M137.667 565.333H171M204.333 565.333H254.333M137.667 582H154.333M237.667 582H254.333M137.667 598.667H171M204.333 598.667H254.333M137.667 615.333H187.667M204.333 615.333H254.333M137.667 632H254.333" stroke="#858585" stroke-width="16.6667"/>
</g>
<path d="M463.75 436V392.25H490V401H472.5V409.75H490V418.5H472.5V436H463.75ZM516.25 436V427.25H507.5V401H516.25V392.25H533.75V401H542.5V427.25H533.75V436H516.25ZM516.25 426.9H533.75V401.35H516.25V426.9ZM560 436V392.25H586.25V401H595V409.75H586.25V427.25H595V436H586.25V427.25H577.5V418.5H568.75V436H560ZM568.75 409.75H585.9V401H568.75V409.75ZM647.5 436V392.25H656.25V401H665V409.75H673.75V418.5H665V409.75H656.25V436H647.5ZM682.5 436V409.75H673.75V401H682.5V392.25H691.25V436H682.5ZM717.5 436V427.25H708.75V401H717.5V392.25H735V401H743.75V427.25H735V436H717.5ZM717.5 426.9H735V401.35H717.5V426.9ZM778.75 436V427.25H770V409.75H761.25V392.25H770V409.75H778.75V427.25H787.5V436H778.75ZM796.25 409.75V392.25H805V409.75H796.25ZM787.5 427.25V409.75H796.25V427.25H787.5ZM822.5 436V392.25H848.75V401H831.25V409.75H848.75V418.5H831.25V427.25H848.75V436H822.5ZM866.25 436V392.25H875V401H883.75V409.75H892.5V418.5H883.75V409.75H875V436H866.25ZM901.25 436V409.75H892.5V401H901.25V392.25H910V436H901.25ZM927.5 436V392.25H953.75V401H936.25V409.75H953.75V418.5H936.25V427.25H953.75V436H927.5ZM971.25 436V392.25H980V401H988.75V409.75H997.5V418.5H1006.25V392.25H1015V436H1006.25V427.25H997.5V418.5H988.75V409.75H980V436H971.25ZM1041.25 436V401H1032.5V392.25H1058.75V401H1050V436H1041.25Z" fill="#252525"/>
<path d="M463.75 948V904.25H490V913H472.5V921.75H490V930.5H472.5V948H463.75ZM516.25 948V939.25H507.5V913H516.25V904.25H533.75V913H542.5V939.25H533.75V948H516.25ZM516.25 938.9H533.75V913.35H516.25V938.9ZM560 948V904.25H586.25V913H595V921.75H586.25V939.25H595V948H586.25V939.25H577.5V930.5H568.75V948H560ZM568.75 921.75H585.9V913H568.75V921.75ZM647.5 948V904.25H673.75V913H682.5V921.75H673.75V939.25H682.5V948H673.75V939.25H665V930.5H656.25V948H647.5ZM656.25 921.75H673.4V913H656.25V921.75ZM700 948V904.25H726.25V913H708.75V921.75H726.25V930.5H708.75V939.25H726.25V948H700ZM761.25 948V939.25H752.5V921.75H743.75V904.25H752.5V921.75H761.25V939.25H770V948H761.25ZM778.75 921.75V904.25H787.5V921.75H778.75ZM770 939.25V921.75H778.75V939.25H770ZM805 948V904.25H831.25V913H813.75V921.75H831.25V930.5H813.75V939.25H831.25V948H805ZM848.75 948V904.25H875V913H883.75V921.75H875V939.25H883.75V948H875V939.25H866.25V930.5H857.5V948H848.75ZM857.5 921.75H874.65V913H857.5V921.75ZM910 913V904.25H936.25V913H910ZM927.5 939.25V930.5H910V921.75H901.25V913H910V921.75H927.5V930.5H936.25V939.25H927.5ZM901.25 948V939.25H927.5V948H901.25ZM953.75 948V904.25H980V913H962.5V921.75H980V930.5H962.5V939.25H980V948H953.75Z" fill="#252525"/>
<path d="M463.75 1281V1237.25H490V1246H472.5V1254.75H490V1263.5H472.5V1281H463.75ZM516.25 1281V1272.25H507.5V1246H516.25V1237.25H533.75V1246H542.5V1272.25H533.75V1281H516.25ZM516.25 1271.9H533.75V1246.35H516.25V1271.9ZM560 1281V1237.25H586.25V1246H595V1254.75H586.25V1272.25H595V1281H586.25V1272.25H577.5V1263.5H568.75V1281H560ZM568.75 1254.75H585.9V1246H568.75V1254.75ZM647.5 1281V1237.25H673.75V1246H682.5V1254.75H673.75V1272.25H682.5V1281H673.75V1272.25H665V1263.5H656.25V1281H647.5ZM656.25 1254.75H673.4V1246H656.25V1254.75ZM708.75 1281V1272.25H700V1246H708.75V1237.25H726.25V1246H735V1272.25H726.25V1281H708.75ZM708.75 1271.9H726.25V1246.35H708.75V1271.9ZM761.25 1281V1246H752.5V1237.25H778.75V1246H770V1281H761.25ZM796.25 1281V1246H805V1237.25H822.5V1246H831.25V1281H822.5V1263.5H805V1281H796.25ZM805 1254.75H822.5V1246.35H805V1254.75ZM857.5 1281V1246H848.75V1237.25H875V1246H866.25V1281H857.5ZM892.5 1281V1237.25H918.75V1246H901.25V1254.75H918.75V1263.5H901.25V1272.25H918.75V1281H892.5Z" fill="#252525"/>
<defs>
<clipPath id="clip0_15_2">
<rect width="150" height="150" fill="white" transform="translate(121 171)"/>
</clipPath>
<clipPath id="clip1_15_2">
<rect width="150" height="150" fill="white" transform="translate(121 1179)"/>
</clipPath>
<clipPath id="clip2_15_2">
<rect width="150" height="150" fill="white" transform="translate(121 843)"/>
</clipPath>
<clipPath id="clip3_15_2">
<rect width="150" height="150" fill="white" transform="translate(121 339)"/>
</clipPath>
<clipPath id="clip4_15_2">
<rect width="150" height="150" fill="white" transform="translate(121 507)"/>
</clipPath>
</defs>
</svg>
